<svg width="680" viewBox="0 0 680 460" xmlns="http://www.w3.org/2000/svg" font-family="Arial, sans-serif">
  <title>CT clamped around two breaker outputs — summed reading</title>
  <defs>
    <marker id="arrow" viewBox="0 0 10 10" refX="8" refY="5" markerWidth="6" markerHeight="6" orient="auto-start-reverse">
      <path d="M2 1L8 5L2 9" fill="none" stroke="context-stroke" stroke-width="1.5" stroke-linecap="round" stroke-linejoin="round"/>
    </marker>
  </defs>

  <!-- Background -->
  <rect width="680" height="460" fill="#ffffff"/>

  <!-- Panel dashed border -->
  <rect x="28" y="28" width="452" height="392" rx="10" fill="none" stroke="#888" stroke-width="1" stroke-dasharray="6 4"/>
  <text x="254" y="450" text-anchor="middle" font-size="12" fill="#666">Electrical panel — CT summing two breaker outputs</text>

  <!-- Supply / bus feeding both breakers -->
  <text x="88" y="52" text-anchor="end" font-size="12" fill="#444">Supply</text>
  <line x1="182" y1="28" x2="182" y2="70" stroke="#333" stroke-width="3.5" stroke-linecap="round"/>
  <line x1="182" y1="70" x2="322" y2="70" stroke="#333" stroke-width="3.5" stroke-linecap="round"/>
  <line x1="182" y1="70" x2="182" y2="90" stroke="#333" stroke-width="3.5" stroke-linecap="round"/>
  <line x1="322" y1="70" x2="322" y2="90" stroke="#333" stroke-width="3.5" stroke-linecap="round"/>

  <!-- Breakers -->
  <rect x="140" y="90" width="84" height="52" rx="6" fill="#f0ede8" stroke="#9e9c94" stroke-width="0.8"/>
  <text x="182" y="113" text-anchor="middle" font-size="13" font-weight="500" fill="#2c2c2a">Breaker 1</text>
  <text x="182" y="130" text-anchor="middle" font-size="11" fill="#5f5e5a">15 A</text>

  <rect x="280" y="90" width="84" height="52" rx="6" fill="#f0ede8" stroke="#9e9c94" stroke-width="0.8"/>
  <text x="322" y="113" text-anchor="middle" font-size="13" font-weight="500" fill="#2c2c2a">Breaker 2</text>
  <text x="322" y="130" text-anchor="middle" font-size="11" fill="#5f5e5a">20 A</text>

  <!-- Direction arrows: both conductors run the same way -->
  <polygon points="178,188 186,188 182,198" fill="#333"/>
  <polygon points="318,188 326,188 322,198" fill="#333"/>

  <!-- Output wires converging into one shared clamp -->
  <path d="M 182 142 L 182 210 L 232 225 L 232 265 L 182 285 L 182 356" fill="none" stroke="#333" stroke-width="3.5" stroke-linecap="round" stroke-linejoin="round"/>
  <path d="M 322 142 L 322 210 L 272 225 L 272 265 L 322 285 L 322 356" fill="none" stroke="#333" stroke-width="3.5" stroke-linecap="round" stroke-linejoin="round"/>

  <!-- Shared CT clamp around both conductors -->
  <ellipse cx="252" cy="245" rx="45" ry="15" fill="#EAF3DE" stroke="#639922" stroke-width="2.5"/>

  <!-- Loads -->
  <rect x="140" y="356" width="84" height="38" rx="6" fill="#e6f1fb" stroke="#185fa5" stroke-width="0.8"/>
  <text x="182" y="378" text-anchor="middle" font-size="12" fill="#0c447c">Load 1</text>

  <rect x="280" y="356" width="84" height="38" rx="6" fill="#e6f1fb" stroke="#185fa5" stroke-width="0.8"/>
  <text x="322" y="378" text-anchor="middle" font-size="12" fill="#0c447c">Load 2</text>

  <!-- CORRECT callout -->
  <rect x="490" y="95" width="165" height="110" rx="8" fill="#EAF3DE" stroke="#3B6D11" stroke-width="0.8"/>
  <text x="572" y="118" text-anchor="middle" font-size="14" font-weight="500" fill="#173404">CORRECT</text>
  <text x="572" y="136" text-anchor="middle" font-size="12" fill="#3B6D11">Same direction:</text>
  <text x="572" y="153" text-anchor="middle" font-size="12" fill="#3B6D11">currents add</text>
  <text x="572" y="170" text-anchor="middle" font-size="12" fill="#3B6D11">(reads B1 + B2)</text>

  <!-- Leader: clamp -> callout -->
  <path d="M 297 245 L 297 150 L 488 150" fill="none" stroke="#639922" stroke-width="1" stroke-dasharray="4 3" marker-end="url(#arrow)"/>

  <!-- WRONG inset: opposing direction cancels -->
  <rect x="490" y="230" width="165" height="150" rx="8" fill="#FCEBEB" stroke="#A32D2D" stroke-width="0.8"/>
  <text x="572" y="253" text-anchor="middle" font-size="14" font-weight="500" fill="#791f1f">WRONG</text>

  <line x1="545" y1="270" x2="545" y2="310" stroke="#333" stroke-width="2.5" stroke-linecap="round"/>
  <line x1="600" y1="270" x2="600" y2="310" stroke="#333" stroke-width="2.5" stroke-linecap="round"/>
  <polygon points="541,278 549,278 545,288" fill="#333"/>
  <polygon points="596,302 604,302 600,292" fill="#333"/>
  <ellipse cx="572" cy="290" rx="32" ry="11" fill="#FCEBEB" stroke="#E24B4A" stroke-width="2"/>

  <text x="572" y="330" text-anchor="middle" font-size="12" fill="#A32D2D">Opposing direction</text>
  <text x="572" y="347" text-anchor="middle" font-size="12" fill="#A32D2D">currents cancel</text>
  <text x="572" y="364" text-anchor="middle" font-size="11" fill="#A32D2D">(partial or full)</text>
</svg>
